# xmcd CD database file
#
# Track frame offsets:
#	150
#	16728
#	35523
#	54593
#	68950
#	81771
#	101426
#	118714
#	139383
#	158753
#
# Disc length: 2300 seconds
#
# Revision: 0
# Processed by: cddbd v1.4PL0 Copyright (c) Steve Scherf et al.
# Submitted via: CDex 1.50
#
DISCID=7f08fa0a
DTITLE=Derelict Country - Nothin' Slick
DYEAR=1998
DGENRE=Country
TTITLE0=Wher Are We Now
TTITLE1=Your Love
TTITLE2=Good Gosh A'Mighty
TTITLE3=Lightning Lit The Sky
TTITLE4=849 East Main Street
TTITLE5=Shame And a Sin
TTITLE6=Searchin' For Another Rainbow
TTITLE7=The Wall
TTITLE8=Rollin' Thunder
TTITLE9=Derelict Love Song
EXTD=YEAR: 1998
EXTT0=
EXTT1=
EXTT2=
EXTT3=
EXTT4=
EXTT5=
EXTT6=
EXTT7=
EXTT8=
EXTT9=
PLAYORDER=
